# xmcd
#
# Track frame offsets:
#	150
#	14652
#	34812
#	52987
#	72495
#	91415
#	116100
#	136207
#	152375
#	171207
#	188872
#	207900
#	225645
#	240470
#
# Disc length: 3425 seconds
#
# Revision: 1
# Processed by: cddbd v1.5PL3 Copyright (c) Steve Scherf et al.
# Submitted via: CDex 1.50Beta5
#
DISCID=bb0d5f0e
DTITLE=Hanson - Middle Of Nowehre
DYEAR=1997
DGENRE=Pop
TTITLE0=Thinking Of You
TTITLE1=Mmmbop
TTITLE2=Weird
TTITLE3=Speechless
TTITLE4=Where's The Love
TTITLE5=Yearbook
TTITLE6=Look At You
TTITLE7=Lucy
TTITLE8=I Will Come To You
TTITLE9=A Minute Without You
TTITLE10=Madeline
TTITLE11=With You In Your Dreams
TTITLE12=Mmm Bop (Berman Bros. Radio Mix)
TTITLE13=Man From Milwaukee (Garage Mix)
EXTD=
EXTT0=
EXTT1=
EXTT2=
EXTT3=
EXTT4=
EXTT5=
EXTT6=
EXTT7=
EXTT8=
EXTT9=
EXTT10=
EXTT11=
EXTT12=
EXTT13=
PLAYORDER=
